<?xml version="1.0" encoding="UTF-8"?>
<svg version="1.1" xmlns="http://www.w3.org/2000/svg" width="100" height="100">
<path d="M0 0 C9.40707465 5.68464327 15.68680199 13.83643636 18.546875 24.5390625 C19.81816587 35.18018906 19.08411233 45.14253855 13.546875 54.5390625 C12.556875 55.5290625 12.556875 55.5290625 11.546875 56.5390625 C13.031875 57.0340625 13.031875 57.0340625 14.546875 57.5390625 C14.546875 58.8590625 14.546875 60.1790625 14.546875 61.5390625 C13.226875 61.5390625 11.906875 61.5390625 10.546875 61.5390625 C10.216875 60.8790625 9.886875 60.2190625 9.546875 59.5390625 C9.01320313 59.99796875 8.47953125 60.456875 7.9296875 60.9296875 C-2.56169886 69.56965274 -11.91574525 71.83539098 -25.31445312 70.80957031 C-34.8744138 69.60038807 -42.8797787 64.22976046 -48.828125 56.828125 C-51.453125 53.09114583 -51.453125 53.09114583 -51.453125 50.5390625 C-52.2575 50.5596875 -53.061875 50.5803125 -53.890625 50.6015625 C-56.453125 50.5390625 -56.453125 50.5390625 -57.453125 49.5390625 C-57.578125 46.5390625 -57.578125 46.5390625 -57.453125 43.5390625 C-56.958125 43.0440625 -56.958125 43.0440625 -56.453125 42.5390625 C-56.37687052 40.5797461 -56.30610979 38.62003955 -56.26513672 36.65966797 C-55.96707395 24.96481162 -53.82146128 15.03480794 -45.4765625 6.2890625 C-32.87910695 -4.60603419 -15.10756629 -7.47031593 0 0 Z " fill="#CEE0F2" transform="translate(68.453125,16.4609375)"/>
<path d="M0 0 C1.36511719 0.00483398 1.36511719 0.00483398 2.7578125 0.00976562 C3.65242188 -0.00634766 4.54703125 -0.02246094 5.46875 -0.0390625 C12.09025293 -0.04394561 16.39341738 0.83880849 21.34765625 5.54492188 C24.5645432 10.92658451 23.76964287 17.29386875 23.0078125 23.32226562 C21.42643977 27.18485263 19.02502537 28.80183113 15.3203125 30.69726562 C10.85587528 31.53961227 6.53589808 31.48334377 2.0078125 31.32226562 C2.04261719 32.381875 2.07742187 33.44148438 2.11328125 34.53320312 C2.14141649 35.92120814 2.16871693 37.30923025 2.1953125 38.69726562 C2.23301758 39.74527344 2.23301758 39.74527344 2.27148438 40.81445312 C2.30078125 42.84570312 2.30078125 42.84570312 2.0078125 46.32226562 C-0.9921875 48.32226562 -0.9921875 48.32226562 -4.6171875 48.00976562 C-7.9921875 47.32226562 -7.9921875 47.32226562 -8.9921875 46.32226562 C-9.09530787 44.9516697 -9.13067703 43.57586904 -9.13745117 42.20141602 C-9.14383102 41.32703384 -9.15021088 40.45265167 -9.15678406 39.55177307 C-9.15789688 38.60076218 -9.1590097 37.64975128 -9.16015625 36.66992188 C-9.16348465 35.69945419 -9.16681305 34.72898651 -9.17024231 33.72911072 C-9.1753158 31.67203243 -9.17765051 29.61494587 -9.17749023 27.55786133 C-9.17967576 24.40171819 -9.19782441 21.24592492 -9.21679688 18.08984375 C-9.21973083 16.09570433 -9.22171561 14.10156323 -9.22265625 12.10742188 C-9.22984177 11.15843521 -9.23702728 10.20944855 -9.24443054 9.23170471 C-9.24135391 8.35417038 -9.23827728 7.47663605 -9.23510742 6.57250977 C-9.23653244 5.79831192 -9.23795746 5.02411407 -9.23942566 4.22645569 C-8.57158216 -0.91717164 -4.02792318 0.03286881 0 0 Z " fill="#DFA372" transform="translate(42.9921875,26.677734375)"/>
<path d="M0 0 C1.36511719 0.00483398 1.36511719 0.00483398 2.7578125 0.00976562 C3.65242188 -0.00634766 4.54703125 -0.02246094 5.46875 -0.0390625 C12.09025293 -0.04394561 16.39341738 0.83880849 21.34765625 5.54492188 C24.5645432 10.92658451 23.76964287 17.29386875 23.0078125 23.32226562 C21.42643977 27.18485263 19.02502537 28.80183113 15.3203125 30.69726562 C10.85587528 31.53961227 6.53589808 31.48334377 2.0078125 31.32226562 C2.04261719 32.381875 2.07742187 33.44148438 2.11328125 34.53320312 C2.14141649 35.92120814 2.16871693 37.30923025 2.1953125 38.69726562 C2.23301758 39.74527344 2.23301758 39.74527344 2.27148438 40.81445312 C2.30078125 42.84570312 2.30078125 42.84570312 2.0078125 46.32226562 C-0.9921875 48.32226562 -0.9921875 48.32226562 -4.6171875 48.00976562 C-7.9921875 47.32226562 -7.9921875 47.32226562 -8.9921875 46.32226562 C-9.09530787 44.9516697 -9.13067703 43.57586904 -9.13745117 42.20141602 C-9.14383102 41.32703384 -9.15021088 40.45265167 -9.15678406 39.55177307 C-9.15789688 38.60076218 -9.1590097 37.64975128 -9.16015625 36.66992188 C-9.16348465 35.69945419 -9.16681305 34.72898651 -9.17024231 33.72911072 C-9.1753158 31.67203243 -9.17765051 29.61494587 -9.17749023 27.55786133 C-9.17967576 24.40171819 -9.19782441 21.24592492 -9.21679688 18.08984375 C-9.21973083 16.09570433 -9.22171561 14.10156323 -9.22265625 12.10742188 C-9.22984177 11.15843521 -9.23702728 10.20944855 -9.24443054 9.23170471 C-9.24135391 8.35417038 -9.23827728 7.47663605 -9.23510742 6.57250977 C-9.23653244 5.79831192 -9.23795746 5.02411407 -9.23942566 4.22645569 C-8.57158216 -0.91717164 -4.02792318 0.03286881 0 0 Z M-6.9921875 2.32226562 C-7.01683263 8.42781273 -7.03502121 14.53333113 -7.04711914 20.63891602 C-7.05216038 22.71769718 -7.05899324 24.79647479 -7.06762695 26.87524414 C-7.07970172 29.85629148 -7.08541774 32.83729212 -7.08984375 35.81835938 C-7.09500504 36.7537706 -7.10016632 37.68918182 -7.10548401 38.65293884 C-7.10555954 39.51375565 -7.10563507 40.37457245 -7.10571289 41.26147461 C-7.1079335 42.02314438 -7.11015411 42.78481415 -7.11244202 43.56956482 C-7.18309705 45.35037167 -7.18309705 45.35037167 -5.9921875 46.32226562 C-2.9921875 46.48893229 -2.9921875 46.48893229 0.0078125 46.32226562 C1.42556088 45.13373707 1.42556088 45.13373707 1.10546875 41.72460938 C1.0987947 40.23629695 1.08683433 38.7480013 1.0703125 37.25976562 C1.06580078 36.50115234 1.06128906 35.74253906 1.05664062 34.9609375 C1.0448193 33.08134691 1.02688328 31.20179664 1.0078125 29.32226562 C2.31105469 29.391875 2.31105469 29.391875 3.640625 29.46289062 C10.95655858 29.95227039 10.95655858 29.95227039 17.6953125 27.63476562 C21.54449503 23.7855831 22.12795016 20.69705257 22.3828125 15.38476562 C22.28389218 10.6436561 21.24658425 7.9209009 18.0078125 4.32226562 C14.93396146 2.39967273 12.61978919 2.08309518 9.0234375 2.12695312 C7.62158203 2.13662109 7.62158203 2.13662109 6.19140625 2.14648438 C4.73927734 2.17162109 4.73927734 2.17162109 3.2578125 2.19726562 C2.27425781 2.20628906 1.29070313 2.2153125 0.27734375 2.22460938 C-2.14608157 2.24813778 -4.56900972 2.28101194 -6.9921875 2.32226562 Z " fill="#63443C" transform="translate(42.9921875,26.677734375)"/>
<path d="M0 0 C6.0546875 -0.1953125 6.0546875 -0.1953125 8 0 C10 2 10 2 10.265625 3.875 C10.26046875 4.57625 10.2553125 5.2775 10.25 6 C10.25515625 6.70125 10.2603125 7.4025 10.265625 8.125 C10 10 10 10 8 12 C5.31160615 12.26991906 2.70858064 12.08737357 0 12 C0 8.04 0 4.08 0 0 Z " fill="#CBDDEF" transform="translate(45,37)"/>
<path d="M0 0 C0.33 0 0.66 0 1 0 C1.33 13.86 1.66 27.72 2 42 C4.64 42 7.28 42 10 42 C8.9375 43.5625 8.9375 43.5625 7 45 C3.375 44.8125 3.375 44.8125 0 44 C-1.15609707 41.68780587 -1.09085101 40.48269304 -1.02172852 37.91748047 C-1.00163223 37.07675995 -0.98153595 36.23603943 -0.96083069 35.36984253 C-0.92027809 34.00727829 -0.92027809 34.00727829 -0.87890625 32.6171875 C-0.84348976 31.22308151 -0.84348976 31.22308151 -0.80735779 29.80081177 C-0.7306391 26.82538894 -0.64665009 23.85022104 -0.5625 20.875 C-0.50928753 18.86068966 -0.45654708 16.84636678 -0.40429688 14.83203125 C-0.27501284 9.88785868 -0.13920707 4.94390273 0 0 Z " fill="#9D745B" transform="translate(35,30)"/>
<path d="M0 0 C3 0.125 3 0.125 4 1.125 C4.125 4.125 4.125 4.125 4 7.125 C3 8.125 3 8.125 0 8.25 C-3 8.125 -3 8.125 -4 7.125 C-4.125 4.125 -4.125 4.125 -4 1.125 C-3 0.125 -3 0.125 0 0 Z " fill="#F0B319" transform="translate(83,10.875)"/>
<path d="M0 0 C2.5625 0.1875 2.5625 0.1875 4.5625 2.1875 C4.00694444 6.74305556 4.00694444 6.74305556 2.5625 8.1875 C0.0625 8.3125 0.0625 8.3125 -2.4375 8.1875 C-3.4375 7.1875 -3.4375 7.1875 -3.5625 4.1875 C-3.39891479 0.26145498 -3.39891479 0.26145498 0 0 Z " fill="#F9CD5C" transform="translate(14.4375,58.8125)"/>
<path d="M0 0 C1.98 0.495 1.98 0.495 4 1 C3.67 2.32 3.34 3.64 3 5 C1.68 4.67 0.36 4.34 -1 4 C-0.67 2.68 -0.34 1.36 0 0 Z " fill="#F9FBFD" transform="translate(17,51)"/>
<path d="M0 0 C2.4375 1.1875 2.4375 1.1875 3.4375 3.1875 C2.4475 4.6725 2.4475 4.6725 1.4375 6.1875 C-0.5625 4.1875 -2.5625 2.1875 -4.5625 0.1875 C-2.5625 -0.8125 -2.5625 -0.8125 0 0 Z " fill="#D0976B" transform="translate(59.5625,30.8125)"/>
<path d="M0 0 C1 3 1 3 0.3125 5.625 C-1 8 -1 8 -3.125 8.8125 C-3.74375 8.874375 -4.3625 8.93625 -5 9 C-4.67 7.68 -4.34 6.36 -4 5 C-3.01 5 -2.02 5 -1 5 C-0.67 3.35 -0.34 1.7 0 0 Z " fill="#C68F66" transform="translate(59,43)"/>
<path d="M0 0 C1.32 0 2.64 0 4 0 C4 1.32 4 2.64 4 4 C2.68 4 1.36 4 0 4 C0 2.68 0 1.36 0 0 Z " fill="#77A2CE" transform="translate(23,85)"/>
<path d="M0 0 C1.32 0 2.64 0 4 0 C4 1.32 4 2.64 4 4 C2.68 4 1.36 4 0 4 C0 2.68 0 1.36 0 0 Z " fill="#77A2CE" transform="translate(11,27)"/>
<path d="M0 0 C1.32 0 2.64 0 4 0 C4 1.32 4 2.64 4 4 C2.68 4 1.36 4 0 4 C0 2.68 0 1.36 0 0 Z " fill="#77A2CE" transform="translate(85,22)"/>
<path d="M0 0 C0.66 0 1.32 0 2 0 C2 0.66 2 1.32 2 2 C1.34 2 0.68 2 0 2 C0 1.34 0 0.68 0 0 Z " fill="#F0B318" transform="translate(76,12)"/>
</svg>
